# xmcd
#
# Track frame offsets:
#	150
#	20351
#	39782
#	62811
#	78190
#	100330
#	116830
#	134989
#	151009
#	176709
#
# Disc length: 2668 seconds
#
# Revision: 0
# Processed by: cddbd v1.5.2PL0 Copyright (c) Steve Scherf et al.
# Submitted via: Jack! The Knife 20 Magnifico
#
DISCID=7d0a6a0a
DTITLE=Children Of Bodom - I Worship Chaos
DYEAR=2015
DGENRE=Metal
TTITLE0=I Hurt
TTITLE1=My Bodom (I Am The Only One)
TTITLE2=Morrigan
TTITLE3=Horns
TTITLE4=Prayer For The Afflicted
TTITLE5=I Worship Chaos
TTITLE6=Hold Your Tongue
TTITLE7=Suicide Bomber
TTITLE8=All For Nothing
TTITLE9=Widdershins
EXTD=Peter Tägtgren
EXTT0=Alexi Laiho
EXTT1=Alexi Laiho
EXTT2=Alexi Laiho
EXTT3=Alexi Laiho
EXTT4=Alexi Laiho
EXTT5=Alexi Laiho
EXTT6=Alexi Laiho
EXTT7=Alexi Laiho
EXTT8=Alexi Laiho
EXTT9=Alexi Laiho
PLAYORDER=
